<?xml version="1.0" encoding="iso-8859-1"?>
<!-- Generator: Adobe Illustrator 19.0.0, SVG Export Plug-In . SVG Version: 6.00 Build 0)  -->
<svg version="1.1" id="Capa_1" xmlns="http://www.w3.org/2000/svg" xmlns:xlink="http://www.w3.org/1999/xlink" x="0px" y="0px"
	 viewBox="0 0 512 512" style="enable-background:new 0 0 512 512;" xml:space="preserve">
<path style="fill:#FBBF00;" d="M512,273.779c0-141.16-114.841-256.002-256-256.002S0,132.619,0,273.779
	c0,85.358,42.459,164.846,113.579,212.628l16.803-25.009C67.608,419.221,30.13,349.084,30.13,273.779
	C30.13,149.233,131.455,47.908,256,47.908S481.87,149.234,481.87,273.78c0,64.051-27.126,124.351-73.857,166.9l2.794-38.343
	l-30.051-2.189l-6.389,87.687l87.688,6.389l2.189-30.051l-34.499-2.514C481.825,413.522,512,345.736,512,273.779z"/>
<path style="fill:#006DFF;" d="M256.161,103.032c-91.34,0.001-165.652,74.313-165.651,165.653
	c0,44.245,17.231,85.845,48.518,117.133c31.288,31.288,72.886,48.52,117.133,48.52c45.671,0,87.083-18.577,117.078-48.573
	c29.996-29.996,48.574-71.409,48.574-117.08C421.813,177.344,347.501,103.033,256.161,103.032z"/>
<path style="fill:#0050C0;" d="M256.161,103.032c0,57.306,0,278.192,0,331.306c45.671,0,87.083-18.577,117.078-48.573
	c29.996-29.996,48.574-71.409,48.574-117.08C421.813,177.344,347.501,103.033,256.161,103.032z"/>
<path style="fill:#08B7FC;" d="M256.161,103.032c-91.34,0.001-165.652,74.313-165.651,165.653
	c0,44.245,17.231,85.845,48.518,117.133c31.288,31.288,72.886,48.52,117.133,48.52c45.671,0,87.083-18.577,117.078-48.573
	c29.996-29.996,48.574-71.409,48.574-117.08C421.813,177.344,347.501,103.033,256.161,103.032z M282.914,162.16
	c19.509,25.119,30.566,55.832,32.967,91.46h-44.655V148.919C274.988,152.673,278.958,157.066,282.914,162.16z M241.096,148.92v104.7
	H196.44c2.4-35.628,13.458-66.341,32.967-91.46C233.364,157.066,237.335,152.673,241.096,148.92z M241.096,388.506
	c-17.963-17.972-40.948-51.065-44.638-104.755h44.638V388.506z M206.456,142.603c-17.045,21.597-36.957,57.767-40.183,111.017
	h-44.791C127.106,202.999,160.718,160.699,206.456,142.603z M206.529,394.862c-17.107-6.724-32.807-16.959-46.196-30.349
	c-22.011-22.012-35.509-50.264-38.861-80.764h44.8C169.504,337.078,189.468,373.276,206.529,394.862z M271.225,388.452V283.749
	h44.655c-2.4,35.629-13.457,66.343-32.967,91.462C278.958,380.306,274.987,384.699,271.225,388.452z M305.867,394.766
	c17.045-21.597,36.956-57.766,40.182-111.017h44.791C385.214,334.371,351.604,376.67,305.867,394.766z M390.84,253.62h-44.792
	c-3.227-53.25-23.138-89.419-40.184-111.017C351.604,160.698,385.215,202.998,390.84,253.62z"/>
<path style="fill:#006DFF;" d="M256.161,103.032v331.306c45.671,0,87.083-18.577,117.078-48.573
	c29.996-29.996,48.574-71.409,48.574-117.08C421.813,177.344,347.501,103.033,256.161,103.032z M271.226,148.919
	c3.762,3.754,7.732,8.147,11.689,13.24c19.509,25.119,30.566,55.832,32.967,91.46h-44.655V148.919z M271.225,388.452V283.749h44.655
	c-2.4,35.629-13.457,66.343-32.967,91.462C278.958,380.306,274.987,384.699,271.225,388.452z M305.867,394.766
	c17.045-21.597,36.956-57.766,40.182-111.017h44.791C385.214,334.371,351.604,376.67,305.867,394.766z M390.84,253.62h-44.792
	c-3.227-53.25-23.138-89.419-40.184-111.017C351.604,160.698,385.215,202.998,390.84,253.62z"/>
<path style="fill:#FFA900;" d="M512,273.779c0-141.16-114.841-256.002-256-256.002v30.13c124.545,0,225.87,101.326,225.87,225.872
	c0,64.051-27.126,124.351-73.857,166.9l2.794-38.343l-30.051-2.189l-6.389,87.687l87.688,6.389l2.189-30.051l-34.499-2.514
	C481.825,413.522,512,345.736,512,273.779z"/>
<g>
</g>
<g>
</g>
<g>
</g>
<g>
</g>
<g>
</g>
<g>
</g>
<g>
</g>
<g>
</g>
<g>
</g>
<g>
</g>
<g>
</g>
<g>
</g>
<g>
</g>
<g>
</g>
<g>
</g>
</svg>
